<?xml version="1.0" encoding="utf-8"?>
<!-- Generator: Adobe Illustrator 23.0.0, SVG Export Plug-In . SVG Version: 6.00 Build 0)  -->
<svg version="1.1" id="Layer_1" xmlns="http://www.w3.org/2000/svg" xmlns:xlink="http://www.w3.org/1999/xlink" x="0px" y="0px"
	 viewBox="0 0 1200 800" style="enable-background:new 0 0 1200 800;" xml:space="preserve">
<style type="text/css">
	.st0{fill:#231F20;}
	.st1{opacity:0.3;fill:#231F20;}
</style>
<g>
	<polygon class="st0" points="566.91,425.12 557.92,417.12 565.09,426.9 562.87,429.08 542.51,408.31 563.28,387.96 583.63,408.73 	
		"/>
	<path fill="#000000" class="st0" d="M722.42,403.05c0.42,0.17,11.57,4.75,15.72,16.91c-0.5-7.32-3.19-13.74-9.09-18.73
		c-5.56-4.71-12.32-5.44-19.25-5.51c-6.88-0.07-13.77-0.14-20.64-0.2c-1.08-0.01-2.76,3.16-3.57,4.69
		c-1.25,1.83-3.16,4.47-3.18,6.39c-0.1,10.37-0.21,20.75-0.31,31.13c-8.34-0.09-16.68-0.17-25.02-0.25
		c0.16-13.87,0.31-26.33,0.47-41.98c0.01-0.74-2.81,3.17-3.04,3.56c-1.12,1.78-3.71,5-3.74,7.23c-0.18,17.83-0.35,31.51-0.54,47.85
		c-25.2-0.2-75.62-0.4-95.34-0.59c-14.22-0.14-27.01-3.66-37.27-14.14c-6.85-6.99-10.97-16.24-12.29-25.87
		c-0.84-6.18-0.25-12.76-0.18-18.98c0.02-2.13,0.04-4.26,0.06-6.39c0.01-0.74-2.81,3.17-3.04,3.56c-1.12,1.78-3.71,5-3.74,7.23
		c-0.12,12.2-1.42,24.85,2.81,36.5c2.74,5.55,8.75,13.41,21.58,18.1c-0.45-0.08-8.89-1.72-16.22-7.91
		c8.38,11.76,22.42,19.08,37.02,19.23c22.16,0.22,81.32,0.44,103.47,0.67c1.02,0.01,2.03,0.02,3.04,0.03
		c1.89,0.01,6.73-9.3,6.75-11.08c0.02-1.91,0.03-3.76,0.05-5.58c8.36,0.08,16.71,0.17,25.06,0.25c0.36,0.01,0.78-0.34,1.21-0.86
		c0.91,3.25,2.42,6.31,4.75,9.17c6.14,7.55,16.48,10.12,25.66,7.7c9.84-2.6,16.05-11.71,20.4-20.3c2.6-5.13,3.58-9.94,3.96-15.12
		C738.03,424.58,736.51,412.04,722.42,403.05z M731.39,439.41c-0.01,1.08-0.02,2.17-0.06,3.25c-0.04,1.21-0.26,2.4-0.48,3.59
		c-0.1,0.49-0.22,0.98-0.35,1.46c-0.14,0.14-0.29,0.31-0.46,0.51c-15.18,14.87-41.4,2.42-41.2-18.19c0.08-7.7,0.16-15.39,0.23-23.08
		c2.89,0.03,5.78,0.06,8.68,0.09c5.91,0.06,11.89-0.33,17.57,1.59c9.77,3.3,16.01,13.05,16.16,23.12
		C731.51,434.3,731.42,436.86,731.39,439.41z"/>
	<path fill="#000000" class="st0" d="M583.24,507.4c-5.13-8.21-13.92-13.5-23.35-15.1c-5.68-0.96-11.79-0.46-17.53-0.51
		c-1.29-0.01-3.42,4.49-3.93,5.35c-0.18,0.31-3.02,6.02-2.79,6.02c5.43,0.05,10.94-0.18,16.35,0.36c9.65,0.95,18.29,6.56,23.9,14.31
		c5.76,7.97,6.34,17.62,6.16,27.2c-14.28-0.14-31.3-0.29-45.58-0.43c-1.29-0.01-3.42,4.49-3.93,5.35c-0.18,0.31-3.02,6.02-2.79,6.02
		c16.44,0.17,35.6,0.33,52.04,0.5c1.89,0.02,6.73-9.3,6.75-11.08C588.66,532.44,590.44,518.91,583.24,507.4z"/>
	<path fill="#000000" class="st0" d="M744.05,367.26c-19.66-0.2-39.32-0.4-58.98-0.6c0.03,0,0.16-13.98,0.18-15.81c0.03-2.55,0.07-5.05,0.42-7.59
		c0.27-2.04,0.8-4.07,1.53-6.01c0.2-0.33,0.44-0.68,0.69-0.97c1.09-1.26,2.36-2.35,3.64-3.41c6.61-5.48,14.8-7.4,23.21-7.31
		c3.19,0.03,6.4,0.06,9.6,0.1c1.21,0.01,4.71-0.31,4.7,0.29c-0.1,9.22-0.18,18.43-0.28,27.65c-0.01,0.74,2.81-3.17,3.04-3.56
		c1.12-1.78,3.72-5,3.74-7.23c0.08-7.96,0.16-15.93,0.25-23.89c-14.09-2.17-24.04,0.93-24.5,1.07c4.46-3.29,16.84-3.51,24.52-3.29
		c0.01-0.69,0.01-1.38,0.02-2.07c-0.01-0.1-0.02-0.19-0.03-0.29c-5.82-0.05-11.65-0.2-17.47-0.15c-11.46,0.08-21.26,6.5-27.97,15.4
		c-6.4,8.49-11.74,18.89-11.84,29.7c-0.03,2.68-0.05,5.35-0.08,8.02c-8.65-0.07-17.36-0.14-25.96-0.21
		c1.89-3.15,3.63-6.44,4.22-10.07c0.58-3.54,0.14-7.49,0.17-11.05c0.1-9.75,0.2-19.49,0.29-29.24c0.01-0.74-2.8,3.17-3.04,3.56
		c-1.12,1.78-3.71,5.01-3.73,7.23c-0.08,8.11-0.16,16.22-0.25,24.34c-0.05,4.41-0.1,8.83-0.14,13.25c0,0.26-0.01,0.52-0.01,0.78
		c-0.8,0.35-1.66,0.59-2.51,0.8c-1.51,0.37-3.1,0.2-4.61-0.05c-5.74-0.93-7.98-5.1-8.77-10.05c0.53-3.49,0.11-7.34,0.14-10.84
		c0.1-9.75,0.2-19.49,0.3-29.23c0-0.14-0.1-0.11-0.27,0.03v-0.04c0.01-0.74-2.81,3.17-3.04,3.56c-1.12,1.78-3.72,5-3.74,7.23
		c-0.1,9.49-0.19,18.97-0.29,28.46c-0.03,3.34-0.07,6.67-0.1,10.02c-0.72,0.29-1.48,0.5-2.23,0.69c-1.52,0.37-3.11,0.2-4.62-0.05
		c-11.51-1.88-8.94-16.75-8.85-24.96c0.08-8.39,0.17-16.79,0.25-25.18c0.01-0.74-2.81,3.17-3.04,3.56c-1.12,1.78-3.71,5-3.74,7.23
		c-0.1,9.48-0.19,18.97-0.29,28.46c-0.03,3.54-0.07,7.09-0.1,10.64c-0.01,0.17,0,0.34,0.01,0.51c-2.87-0.03-5.68-0.05-8.41-0.08
		c-9.96-0.1-18.81-2.14-25.49-10.34c-7.63-9.37-7.57-21.48-7.45-32.9c0.25-25.51,0.51-51.01,0.77-76.52
		c0.03-3.43,0.07-6.85,0.1-10.27c0.01-0.74-2.81,3.17-3.04,3.56c-1.12,1.78-3.71,5-3.74,7.23c-0.21,21.33-0.43,42.66-0.64,63.99
		c-0.1,9.71-0.2,19.41-0.29,29.12c-0.01,0.64-0.01,1.29,0.01,1.93v0.07c0.25,2.78,1.98,16.88,11.77,24.03
		c-0.26-0.12-5.88-2.8-9.7-10.12c2.59,8.65,7.84,16.12,16.99,19.79c6.26,2.5,13.85,1.79,20.49,1.86
		c11.78,0.12,23.57,0.24,35.36,0.35c25.59,0.26,69.69,0.52,95.29,0.78c2.85,0.03,10.85-0.01,11.29,0c1.29,0.01,3.02-5.01,3.52-5.87
		C741.44,372.97,744.28,367.26,744.05,367.26z M686.87,337.79c-0.13,0.28-0.2,0.42-0.23,0.46
		C686.65,338.21,686.74,338.03,686.87,337.79z"/>
	<path fill="#000000" class="st0" d="M686.64,338.25c0.03-0.03,0.1-0.18,0.23-0.46C686.74,338.03,686.65,338.21,686.64,338.25z"/>
	<path fill="#000000" class="st0" d="M603,434.55c-1.12,1.78-3.71,5-3.74,7.23c-0.4,39.63-0.8,79.25-1.2,118.88c0,0.03,0,0.05,0,0.08
		c-0.01,0.74,2.8-3.17,3.05-3.56c1.12-1.78,3.71-5,3.74-7.23c0.4-39.63,0.8-79.25,1.2-118.88c0-0.03,0-0.05,0-0.08
		C606.06,430.26,603.24,434.17,603,434.55z"/>
	<path fill="#000000" class="st0" d="M523.12,506.41c-4.47-8.67-13.3-14.29-22.79-15.71c-5.67-0.84-11.76-0.33-17.46-0.39
		c-2.6-0.03-5.19-0.05-7.78-0.07c-1.08-0.01-2.76,3.16-3.56,4.69c-1.25,1.83-3.17,4.48-3.19,6.39c-0.1,10.08-0.2,20.16-0.3,30.23
		c-0.01,1.49,0.09,2.94,0.3,4.34c0,0,0,0.01,0.01,0.01c2.57,5.55,7.85,12.8,18.67,17.72c-0.4-0.1-9.67-2.55-16.51-10.58
		c5.88,12.46,21.26,18.74,35,12.54c9.04-4.08,15.12-14.41,18.81-23.15C527.91,523.89,527.36,514.64,523.12,506.41z M518.57,540.03
		C518.17,540.79,517.93,540.97,518.57,540.03L518.57,540.03z M519.25,538.16c-0.1,0.42-0.22,0.81-0.36,1.15
		c-0.48,0.48-0.97,0.93-1.47,1.38c-1.7,1.53-3.7,2.71-5.73,3.74c-17.1,8.65-37.05-5.72-36.86-24.04c0.06-6.29,0.12-12.57,0.19-18.85
		c8.94-0.21,18.45-0.55,26.5,2.68c8.63,3.46,14.89,11.2,17.46,19.99C520.3,528.76,520.26,533.58,519.25,538.16z"/>
	<g>
		<path fill="#000000" class="st0" d="M541.71,363.06l-18.53,0.6l17.25,2.02c-0.96,2.02-2.35,5.67-4.2,6.11c-6.88,1.61-12.11,0.13-42.32,1.61
			c-0.77,0.03,1.43-4,1.65-4.39c0.96-1.73,2.62-5.82,4.53-6.76l42.32-1.61C542.81,360.43,542.28,361.8,541.71,363.06z"/>
	</g>
	<g>
		<path fill="#000000" class="st0" d="M711.86,212.77c-5.5-0.88-154.24-0.37-169.32-0.34c0.57-1.25,1.29-2.65,1.4-2.96
			c0.07-0.21,0.5-1.25,0.52-1.33c0.11-0.25,0.22-0.5,0.33-0.74c0.07-0.1,0.16-0.23,0.29-0.41c0.54-0.76,1.12-1.5,1.7-2.22
			c1.7-2.09,3.57-4.02,5.53-5.86c4.75-4.45,10.17-8.15,15.84-11.31c17.72-9.91,38.2-13.85,58.18-15.9
			c18.74-1.93,37.21-6.95,53.89-15.79c23.89-12.66,40.99-33.5,53.07-57.31c5.28-10.43,10.08-22.16,11.52-33.87
			c-0.41,1.74-16.44,76.45-90.66,91.94c-9.99,2.08-19.97,3.28-30.06,4.6c-10.24,1.33-20.39,3.51-30.22,6.69
			c-12.87,4.16-25.3,10.43-35.33,19.59c18.66-12.97,37.17-16.31,37.17-16.31c-39.5,14.3-48.81,31.33-48.81,31.33l-2.22,2.28
			c-1.55,2.58-2.98,5.23-4.3,7.91c-0.14,0.29-0.27,0.58-0.37,0.87c-1.04,1.4-2.08,3.61-2.42,4.19c-0.18,0.31-2.96,6.05-2.72,6.05
			c5.42,0,163.8-0.29,169.21,0.19c9.66,0.85,18.36,6.38,24.04,14.07c5.84,7.91,6.52,17.56,6.43,27.14H715.2
			c-0.1-0.06-0.2-0.12-0.31-0.18H539.46c-7.91,0-28.62,0.06-30.48,0.04c-6.8,0.09-12.88,2.4-17.78,6.63
			c10.99-4.34,22.8-2.43,22.8-2.43c-18.28,0.82-26.34,6.8-29.53,10.33c-0.96,1.38-1.89,2.82-2.76,4.3
			c-0.97,1.51-1.89,3.04-2.78,4.57c-4.1,7.09-7.04,14.55-7.18,22.81c-0.1,5.85,0,11.71,0,17.56v129.59c0,0.74,6.67-7.74,6.67-9.97
			V321.01c0.66,1.25,1.44,2.47,2.37,3.68c5.6,7.29,14.96,10.52,23.9,9.48c8.58-0.99,15.62-6.79,20.13-13.87
			c1.35-2.12,2.67-4.27,3.86-6.48c3.32-5.68,5.95-11.72,6.01-18.45c0.06-6.29,0.12-12.57,0.19-18.85H685.1
			c-0.03,0.11-0.05,0.18-0.02,0.18h49.31c1.89,0,6.63-9.37,6.63-11.15c0-12.95,1.65-26.49-5.67-37.93
			C730.15,219.48,721.31,214.27,711.86,212.77z M527.01,308.12c0,2.03-0.27,4.01-0.69,5.99c-0.01,0.05-0.03,0.11-0.03,0.16
			c-0.32,0.29-0.63,0.59-0.96,0.88c-3.71,3.33-8.42,5.2-13.29,5.94c-9.07,1.39-18.09-2.77-23.8-9.72
			c-5.32-6.47-5.97-14.81-5.33-22.83c0.07-0.96,0.26-1.91,0.46-2.86c1.2-1.1,2.49-2.1,3.8-3.03c1.93-1.39,4.03-2.51,6.2-3.41
			c2.49-0.74,5.09-1.11,7.69-1.16c2.99,0,25.94-0.01,25.94,0V308.12z"/>
	</g>
	<path fill="#000000" class="st0" d="M563.28,387.96c0,0-16.38,13.5-6.16,21.67l6.81,6.58l15.12-12.19L563.28,387.96z"/>
	<g>
		<path fill="#000000" class="st0" d="M710.72,184.07c-29.17-3.57-55.01-20.02-65.83-41.92c-9.58-19.37-7.38-41.99,6.37-65.42
			c13.63-23.23,33.23-34.04,41.02-37.6c25.98-11.89,38.25-5.09,45.7,0.81c12.02,9.52,5.45,32.29,5.43,32.45l-2.95,6.7
			c0.02-0.15,10.33-27.47-2.99-38.63c-7.12-5.97-19.3-12.44-44.91-0.71c-7.73,3.54-27.18,14.27-40.72,37.33
			c-13.62,23.21-16.1,45.75-6.35,64.77C664.69,179.27,710.72,184.07,710.72,184.07z"/>
	</g>
	<g>
		
			<rect x="703.4" y="177.07" transform="matrix(0.7142 -0.6999 0.6999 0.7142 74.8949 548.204)" class="st0" width="10.65" height="10.65"/>
		<path fill="#000000" class="st0" d="M708.81,174.86c0,0-6,4.94-2.26,7.94l2.49,2.41l5.54-4.46L708.81,174.86z"/>
	</g>
	<path fill="#000000" class="st0" d="M741.36,546.63c-19.66-0.2-39.33-0.4-58.99-0.59c0.03,0,0.16-13.99,0.18-15.82c0.03-2.55,0.08-5.05,0.42-7.59
		c0.27-2.04,0.8-4.07,1.53-6.01c0.2-0.32,0.44-0.67,0.7-0.97c1.08-1.26,2.36-2.34,3.63-3.41c6.61-5.48,14.81-7.39,23.21-7.31
		c3.2,0.03,6.4,0.07,9.6,0.1c1.27,0.01,4.71-0.37,4.7,0.35c-0.08,8.61-0.17,17.22-0.26,25.83c-0.01,0.74,2.81-3.17,3.04-3.56
		c1.12-1.78,3.72-5,3.74-7.23c0.07-7.31,0.15-14.62,0.22-21.92c-14.83-2.6-25.41,0.69-25.89,0.84c4.71-3.47,18.28-3.52,25.78-3.25
		c0.32-0.79,0.33-0.81,0.66-1.6c-0.55-0.52-0.59-0.56-0.79-0.78c-5.74-0.06-11.48-0.19-17.22-0.15
		c-11.46,0.09-21.26,6.51-27.97,15.4c-6.4,8.49-11.74,18.89-11.85,29.71c-0.03,2.43-0.05,4.87-0.07,7.31
		c-3.49-0.03-6.98-0.07-10.48-0.11c-0.03-1.34-0.07-2.66-0.05-3.88c0.12-6.72,0.14-13.44,0.16-20.15
		c0.02-9.59,0.01-19.18-0.05-28.77c-0.01-0.01-0.02-0.02-0.03-0.03c-12.66-0.12-25.71-1.94-35.76,7.5
		c-6.6,6.2-12.03,15.99-13.93,24.82c-1.84,8.56,1.22,17.53,7.1,23.8c8.83,9.39,21.75,7.96,33.4,8.08c0.88,0.01,1.75,0.01,2.63,0.02
		c-0.48,3.58-1.71,8.58-2.72,12.03c-1.12,3.79-2.49,7.51-4.01,11.16c-0.75,1.8-1.74,3.9-2.44,5.31c-0.58,1.16-1.05,2.04-1.33,2.55
		c-0.01,0.03-0.46,0.82-0.6,1.06c-0.25,0.42-0.68,1.14-0.78,1.3c-15.66,25.26-44.23,41.62-73.19,48.31
		c-4.65,1.08-9.32,1.81-14.02,2.42c-0.02-0.09-0.04-0.18-0.06-0.27c-0.23-1.02-0.44-2.04-0.7-3.04c-0.31-0.99-0.61-1.98-0.92-2.96
		c-1.33-3.89-2.96-7.62-5.01-11c-0.95-1.75-2.13-3.32-3.19-4.93c-0.57-0.78-1.18-1.53-1.76-2.28c-0.29-0.37-0.59-0.75-0.88-1.12
		c-0.29-0.37-0.63-0.72-0.93-1.07c-4.96-5.67-10.48-10.29-16.01-13.85c-5.51-3.59-10.95-6.27-15.88-8.28
		c-4.94-2.04-9.43-3.32-13.15-4.28c-0.93-0.22-1.81-0.44-2.64-0.63c-0.83-0.2-1.62-0.32-2.35-0.48c-1.46-0.28-2.7-0.53-3.73-0.65
		c-0.25-0.04-0.49-0.08-0.72-0.1c0.22,0.03,0.46,0.08,0.72,0.11c1.02,0.13,2.26,0.38,3.73,0.67c0.72,0.15,1.52,0.27,2.34,0.48
		c0.83,0.2,1.72,0.42,2.64,0.64c3.71,0.97,8.19,2.25,13.12,4.3c4.94,2.02,10.36,4.71,15.86,8.31c5.5,3.58,11,8.19,15.94,13.87
		c0.31,0.36,0.64,0.69,0.93,1.07c0.29,0.37,0.59,0.75,0.88,1.12c0.58,0.76,1.19,1.5,1.75,2.28c1.06,1.61,2.23,3.18,3.17,4.92
		c2.04,3.38,3.66,7.1,4.97,10.98c0.31,0.98,0.61,1.96,0.91,2.95c0.27,1.08,0.49,2.19,0.75,3.28h-0.01
		c-5.27,0.68-10.56,1.21-15.86,1.84c-10.26,1.23-20.43,3.3-30.29,6.38c-12.98,4.05-25.53,10.24-35.69,19.39
		c-7.68,6.91-16.82,19.32-19.53,25.32c-3.3,7.28-3.25,13.53-3.25,13.58c0.01,2.06,0.12,5.12,0.93,8.9c0.08,0.43,0.18,0.87,0.3,1.31
		c0.31,1.15,0.66,2.29,1.07,3.41c0.17,0.46,0.35,0.92,0.56,1.37c0.93,2.14,2.18,4.38,4,6.4c1.76,2.03,4.05,3.89,6.74,5.29
		c2.69,1.4,5.8,2.32,9.09,2.68c3.3,0.37,6.76,0.22,10.29-0.29c0.87-0.16,1.76-0.31,2.65-0.48c0.89-0.15,1.76-0.42,2.66-0.62
		c1.79-0.4,3.55-1.03,5.36-1.57c0.9-0.29,1.78-0.65,2.68-0.97c0.89-0.35,1.81-0.64,2.69-1.05c0.89-0.38,1.78-0.77,2.68-1.16
		c0.45-0.2,0.9-0.39,1.36-0.59c0.44-0.21,0.89-0.43,1.34-0.64c3.57-1.73,7.06-3.8,10.48-6.1c6.84-4.59,13.26-10.28,18.94-16.79
		c2.83-3.27,5.42-6.78,7.83-10.43c1.14-1.86,2.34-3.7,3.35-5.65l1.57-2.88c0.28-0.48,0.52-0.97,0.75-1.46l0.7-1.49l1.41-2.98
		c0.44-1.01,0.82-2.04,1.23-3.05c0.39-1.02,0.84-2.02,1.18-3.07l1.01-3.13l0.5-1.56l0.4-1.59c0.26-1.06,0.52-2.12,0.78-3.17
		c0.25-1.06,0.38-2.14,0.58-3.2c0.21-1.39,0.56-2.76,0.47-4.18c0.06-0.52,0.11-1.03,0.17-1.55c0.19-0.76,0.19-1.54,0.2-2.31
		l0.03-1.61c0.03-0.72,0.03-1.42,0.01-2.13c13.51-2.53,26.69-6.81,38.92-13.14c24.02-12.42,41.33-33.08,53.64-56.77
		c3.95-7.6,7.64-15.9,9.95-24.41c7.93,0.08,15.86,0.16,23.78,0.24c15.85,0.16,31.7,0.32,47.56,0.48c1.29,0.01,3.42-4.49,3.93-5.35
		C738.75,552.35,741.6,546.63,741.36,546.63z M684.18,517.17c-0.12,0.25-0.18,0.39-0.22,0.44
		C683.98,517.55,684.06,517.39,684.18,517.17z M658.49,545.8c-3.38-0.03-6.76-0.07-10.14-0.1c-8.41-0.08-15.94-3.91-21.15-10.49
		c-3.04-3.84-4.73-8.66-5.22-13.5c-0.21-1.99-0.05-4,0.19-5.99c0.14-1.16,0.44-2.3,0.74-3.43c0.04-0.1,0.07-0.19,0.11-0.28
		c0.37-0.39,0.75-0.76,1.14-1.11c6.03-5.67,13.63-6.71,21.5-6.63c3.26,0.03,6.52,0.07,9.78,0.1c0.96,0.01,1.92,0.01,2.89,0.03
		c0.13,0,0.18-0.1,0.21-0.12c0,0.03-0.01,0.14-0.01,0.46c0.02,4.43,0.03,8.86,0.04,13.29C658.59,527.28,658.58,536.54,658.49,545.8z
		 M560.53,653.74l-0.03,1.6c-0.01,0.76-0.02,1.53-0.21,2.29c-0.06,0.52-0.12,1.03-0.17,1.55c0.08,1.42-0.26,2.78-0.48,4.16
		c-0.2,1.06-0.34,2.13-0.59,3.19c-0.27,1.06-0.52,2.1-0.79,3.16l-0.4,1.58l-0.5,1.55l-1.01,3.11c-0.34,1.04-0.8,2.04-1.18,3.05
		c-0.42,1.01-0.8,2.04-1.24,3.04l-1.41,2.96l-0.7,1.48c-0.22,0.5-0.47,0.98-0.74,1.46l-1.59,2.87c-1.02,1.95-2.21,3.77-3.35,5.62
		c-2.41,3.63-4.99,7.12-7.83,10.37c-5.67,6.47-12.08,12.12-18.89,16.67c-3.41,2.28-6.89,4.33-10.43,6.03
		c-0.44,0.22-0.89,0.43-1.33,0.64c-0.45,0.19-0.89,0.39-1.34,0.58c-0.89,0.38-1.78,0.76-2.67,1.14c-0.88,0.4-1.8,0.69-2.68,1.04
		c-0.89,0.32-1.77,0.67-2.66,0.96c-1.79,0.54-3.54,1.16-5.33,1.55c-0.89,0.2-1.75,0.47-2.64,0.61c-0.89,0.16-1.76,0.31-2.62,0.46
		c-3.49,0.5-6.91,0.63-10.14,0.26c-3.24-0.36-6.27-1.27-8.89-2.64c-2.62-1.38-4.82-3.17-6.55-5.16c-1.76-1.95-2.98-4.15-3.88-6.24
		c-0.2-0.41-0.36-0.83-0.52-1.24c-0.48-1.32-0.9-2.66-1.22-4.03c-0.06-0.24-0.11-0.47-0.15-0.71c-0.8-3.72-0.89-6.74-0.89-8.77
		v-0.05c0.01-2.57,0.53-11.83,10.34-22.59c1.81-1.99,3.6-3.3,5.58-5.12c4.8-4.4,10.25-8.04,15.95-11.15
		c17.82-9.73,38.35-13.46,58.34-15.31c4.98-0.46,9.94-1.15,14.87-2.06C560.56,652.35,560.56,653.04,560.53,653.74z"/>
	<g>
		
			<rect x="479.19" y="581.77" transform="matrix(0.7142 -0.6999 0.6999 0.7142 -272.4586 506.9353)" class="st0" width="10.65" height="10.65"/>
		<path fill="#000000" class="st0" d="M484.44,594.63c0,0,6-4.94,2.26-7.94l-2.49-2.41l-5.54,4.46L484.44,594.63z"/>
	</g>
	<polygon class="st1" points="598.96,465.31 598.9,470.25 605.69,479.87 605.77,465.31 	"/>
	<polygon class="st1" points="556.88,276.53 556.86,282.14 563.47,290.4 563.55,276.53 	"/>
</g>
<path fill="#000000" d="M273.602,481.306c-0.578-0.576-1.301-1.03-2.174-1.362c-0.873-0.331-1.885-0.497-3.039-0.497
	c-0.663,0-1.463,0.079-2.4,0.238v-6.077h-1.535v17.711c0.706,0.202,1.402,0.354,2.087,0.454s1.301,0.151,1.849,0.151
	c1.153,0,2.166-0.162,3.039-0.486s1.596-0.764,2.174-1.319c0.576-0.555,1.006-1.211,1.287-1.968s0.42-1.561,0.42-2.411
	s-0.139-1.657-0.42-2.422C274.608,482.554,274.178,481.883,273.602,481.306z M272.391,489.167c-0.852,0.829-2.17,1.243-3.958,1.243
	c-0.39,0-0.805-0.032-1.244-0.097c-0.439-0.065-0.84-0.134-1.2-0.206v-8.845c0.447-0.115,0.887-0.194,1.319-0.237
	c0.433-0.044,0.808-0.065,1.125-0.065c0.894,0,1.668,0.112,2.325,0.335c0.656,0.224,1.199,0.545,1.633,0.963
	c0.432,0.418,0.752,0.919,0.961,1.503s0.314,1.243,0.314,1.979C273.667,487.195,273.241,488.338,272.391,489.167z M247.392,479.446
	c-0.62,0-1.297,0.079-2.033,0.238c-0.735,0.158-1.485,0.433-2.249,0.821l-0.065,1.73c0.548-0.303,0.973-0.52,1.276-0.649
	s0.624-0.237,0.962-0.324c0.338-0.086,0.677-0.158,1.016-0.216s0.667-0.087,0.984-0.087c1.139,0,1.982,0.249,2.53,0.746
	s0.822,1.33,0.822,2.498v0.13c-0.332-0.044-0.732-0.087-1.2-0.13c-0.469-0.043-0.876-0.065-1.222-0.065
	c-1.831,0-3.302,0.311-4.412,0.931c-1.11,0.619-1.665,1.644-1.665,3.07c0,0.707,0.155,1.305,0.465,1.795
	c0.31,0.49,0.713,0.88,1.211,1.168s1.067,0.497,1.708,0.627c0.641,0.13,1.308,0.194,2,0.194c0.807,0,1.6-0.072,2.378-0.216
	c0.779-0.145,1.536-0.368,2.271-0.671v-7.028c0-1.585-0.397-2.742-1.189-3.471C250.189,479.811,248.992,479.446,247.392,479.446z
	 M250.636,489.892c-0.375,0.144-0.858,0.267-1.449,0.367c-0.591,0.102-1.183,0.151-1.773,0.151c-0.505,0-0.984-0.035-1.438-0.108
	c-0.454-0.071-0.84-0.197-1.157-0.378c-0.317-0.18-0.57-0.414-0.757-0.703c-0.188-0.288-0.281-0.663-0.281-1.124
	c0-0.52,0.111-0.934,0.335-1.244c0.224-0.31,0.533-0.551,0.93-0.724c0.396-0.174,0.85-0.296,1.362-0.368
	c0.511-0.072,1.041-0.108,1.589-0.108c0.476,0,0.984,0.029,1.524,0.087c0.541,0.058,0.912,0.108,1.114,0.151V489.892z
	 M258.032,479.868c-0.649,0.122-1.276,0.263-1.881,0.422v11.418h1.535v-10.186c0.202-0.072,0.563-0.147,1.082-0.228
	c0.519-0.079,1.002-0.118,1.449-0.118h1.989v-1.492H260C259.336,479.685,258.681,479.746,258.032,479.868z M-77.92,487.667
	l241.145,0.656l0.663-0.433l-0.632-0.564L-77.92,487.667z M164.994,487.825l1.95,1.95l1.95-1.95l-1.95-1.95L164.994,487.825z
	 M169.559,487.825l3.057,3.057l3.057-3.057l-3.057-3.057L169.559,487.825z M212.359,489.286l-3.395-9.602h-1.514l-3.396,9.602
	l-2.984-9.602h-1.73l3.979,12.023h1.428l3.46-9.645l3.46,9.645h1.427l3.979-12.023h-1.73L212.359,489.286z M238.418,489.589
	c-0.317,0-0.591,0.115-0.822,0.346c-0.231,0.23-0.346,0.505-0.346,0.822c0,0.316,0.115,0.591,0.346,0.821
	c0.23,0.23,0.504,0.346,0.822,0.346c0.317,0,0.591-0.115,0.822-0.346c0.23-0.23,0.346-0.505,0.346-0.821
	c0-0.317-0.116-0.592-0.346-0.822C239.009,489.704,238.735,489.589,238.418,489.589z M193.243,489.286l-3.395-9.602h-1.514
	l-3.396,9.602l-2.984-9.602h-1.73l3.979,12.023h1.428l3.46-9.645l3.46,9.645h1.427l3.979-12.023h-1.73L193.243,489.286z
	 M231.476,489.286l-3.395-9.602h-1.514l-3.396,9.602l-2.984-9.602h-1.73l3.979,12.023h1.428l3.46-9.645l3.46,9.645h1.427
	l3.979-12.023h-1.73L231.476,489.286z M382.732,480.474c-0.426-0.396-0.938-0.667-1.535-0.812c-0.598-0.144-1.271-0.216-2.021-0.216
	c-0.664,0-1.393,0.09-2.184,0.271c-0.793,0.181-1.471,0.4-2.033,0.659c-0.346-0.331-0.818-0.569-1.416-0.714
	c-0.6-0.144-1.273-0.216-2.023-0.216c-0.635,0-1.268,0.058-1.902,0.173l-2.465,0.454v11.635h1.535v-10.38
	c0.447-0.102,0.883-0.188,1.309-0.26c0.424-0.072,0.896-0.108,1.416-0.108c0.605,0,1.125,0.058,1.557,0.173
	c0.434,0.116,0.789,0.321,1.07,0.616c0.281,0.296,0.494,0.711,0.639,1.244s0.217,1.24,0.217,2.119v6.596h1.535v-7.201
	c0-0.663-0.055-1.243-0.162-1.741c-0.109-0.497-0.213-0.861-0.314-1.092c0.086-0.043,0.281-0.119,0.584-0.228
	c0.303-0.107,0.602-0.197,0.898-0.27c0.295-0.072,0.586-0.126,0.875-0.162s0.547-0.055,0.779-0.055c0.59,0,1.102,0.058,1.535,0.173
	c0.432,0.116,0.781,0.317,1.049,0.605c0.266,0.289,0.471,0.703,0.615,1.244c0.145,0.54,0.217,1.251,0.217,2.13v6.596h1.535v-7.201
	c0-0.995-0.111-1.816-0.336-2.466C383.482,481.393,383.158,480.87,382.732,480.474z M280.1,474.581
	c-0.785,0.648-1.18,1.729-1.18,3.243v1.86h-2.551v1.492h2.551v10.531h1.537v-10.531h4.973v-1.492h-4.973v-1.471
	c0-0.635,0.045-1.149,0.141-1.546c0.094-0.396,0.24-0.707,0.443-0.931c0.201-0.223,0.475-0.385,0.82-0.486
	c0.346-0.101,0.779-0.151,1.299-0.151h2.422v-1.492h-2.271C281.956,473.607,280.885,473.932,280.1,474.581z M398.273,487.825
	l3.057,3.057l3.057-3.057l-3.057-3.057L398.273,487.825z M343.322,482.322c0.389-0.418,0.854-0.749,1.395-0.994
	s1.135-0.368,1.783-0.368c0.736,0,1.373,0.076,1.914,0.228s1.121,0.414,1.74,0.789l0.715-1.405c-0.707-0.39-1.393-0.674-2.055-0.854
	c-0.664-0.181-1.436-0.271-2.314-0.271c-0.85,0-1.639,0.155-2.367,0.465c-0.729,0.311-1.367,0.746-1.914,1.309
	c-0.549,0.563-0.98,1.222-1.297,1.979c-0.317,0.757-0.476,1.59-0.476,2.498s0.158,1.74,0.476,2.497
	c0.316,0.757,0.748,1.413,1.297,1.969c0.547,0.555,1.186,0.987,1.914,1.297c0.729,0.311,1.518,0.465,2.367,0.465
	c0.879,0,1.65-0.09,2.314-0.27c0.662-0.181,1.348-0.466,2.055-0.854l-0.715-1.406c-0.619,0.375-1.199,0.639-1.74,0.79
	s-1.178,0.227-1.914,0.227c-0.648,0-1.242-0.119-1.783-0.356c-0.541-0.238-1.006-0.565-1.395-0.984
	c-0.391-0.418-0.693-0.915-0.908-1.492c-0.217-0.576-0.324-1.203-0.324-1.881s0.107-1.305,0.324-1.882
	C342.628,483.238,342.931,482.741,343.322,482.322z M404.387,487.825l1.949,1.95l1.951-1.95l-1.951-1.95L404.387,487.825z
	 M410.701,487.326l-0.664,0.433l0.633,0.564l241.176-0.341L410.701,487.326z M362.611,481.295c-0.549-0.569-1.193-1.02-1.936-1.352
	c-0.742-0.331-1.547-0.497-2.412-0.497c-0.863,0-1.668,0.166-2.41,0.497c-0.742,0.332-1.389,0.782-1.936,1.352
	c-0.549,0.57-0.977,1.229-1.287,1.979c-0.311,0.749-0.465,1.557-0.465,2.422s0.154,1.672,0.465,2.422s0.738,1.409,1.287,1.979
	c0.547,0.569,1.193,1.017,1.936,1.341s1.547,0.486,2.41,0.486c0.865,0,1.67-0.162,2.412-0.486s1.387-0.771,1.936-1.341
	c0.547-0.569,0.977-1.229,1.287-1.979c0.309-0.75,0.465-1.557,0.465-2.422s-0.156-1.673-0.465-2.422
	C363.587,482.524,363.158,481.865,362.611,481.295z M362.394,487.523c-0.217,0.569-0.52,1.067-0.908,1.492
	c-0.389,0.426-0.857,0.765-1.406,1.017c-0.547,0.252-1.152,0.378-1.816,0.378c-0.662,0-1.268-0.126-1.816-0.378
	c-0.547-0.252-1.016-0.591-1.404-1.017c-0.391-0.425-0.693-0.923-0.908-1.492c-0.217-0.569-0.324-1.179-0.324-1.827
	c0-0.649,0.107-1.262,0.324-1.839c0.215-0.576,0.518-1.077,0.908-1.503c0.389-0.425,0.857-0.764,1.404-1.016
	c0.549-0.252,1.154-0.379,1.816-0.379c0.664,0,1.27,0.127,1.816,0.379c0.549,0.252,1.018,0.591,1.406,1.016
	c0.389,0.426,0.691,0.927,0.908,1.503c0.217,0.577,0.324,1.189,0.324,1.839C362.718,486.345,362.611,486.954,362.394,487.523z
	 M296.221,481.295c-0.547-0.569-1.191-1.02-1.936-1.352c-0.742-0.331-1.545-0.497-2.41-0.497s-1.67,0.166-2.412,0.497
	c-0.742,0.332-1.387,0.782-1.936,1.352c-0.547,0.57-0.977,1.229-1.285,1.979c-0.311,0.749-0.465,1.557-0.465,2.422
	s0.154,1.672,0.465,2.422c0.309,0.75,0.738,1.409,1.285,1.979c0.549,0.569,1.193,1.017,1.936,1.341s1.547,0.486,2.412,0.486
	s1.668-0.162,2.41-0.486c0.744-0.324,1.389-0.771,1.936-1.341c0.549-0.569,0.977-1.229,1.287-1.979s0.465-1.557,0.465-2.422
	s-0.154-1.673-0.465-2.422C297.198,482.524,296.77,481.865,296.221,481.295z M296.006,487.523c-0.217,0.569-0.52,1.067-0.908,1.492
	c-0.391,0.426-0.859,0.765-1.406,1.017c-0.549,0.252-1.154,0.378-1.816,0.378c-0.664,0-1.27-0.126-1.816-0.378
	c-0.549-0.252-1.018-0.591-1.406-1.017c-0.389-0.425-0.691-0.923-0.908-1.492s-0.324-1.179-0.324-1.827
	c0-0.649,0.107-1.262,0.324-1.839c0.217-0.576,0.52-1.077,0.908-1.503c0.389-0.425,0.857-0.764,1.406-1.016
	c0.547-0.252,1.152-0.379,1.816-0.379c0.662,0,1.268,0.127,1.816,0.379c0.547,0.252,1.016,0.591,1.406,1.016
	c0.389,0.426,0.691,0.927,0.908,1.503c0.215,0.577,0.324,1.189,0.324,1.839C296.331,486.345,296.221,486.954,296.006,487.523z
	 M309.381,480.463c-0.455-0.39-0.996-0.656-1.623-0.801c-0.627-0.144-1.309-0.216-2.043-0.216c-0.707,0-1.465,0.047-2.271,0.141
	s-1.701,0.234-2.682,0.422v11.699h1.535v-10.402c1.184-0.23,2.293-0.346,3.33-0.346c0.592,0,1.111,0.062,1.559,0.184
	c0.445,0.123,0.818,0.332,1.113,0.628c0.295,0.295,0.525,0.713,0.691,1.254s0.25,1.251,0.25,2.13v6.553h1.535v-7.201
	c0-0.995-0.119-1.82-0.357-2.477C310.18,481.375,309.834,480.852,309.381,480.463z M318.516,490.054
	c-0.346-0.108-0.619-0.277-0.82-0.509c-0.203-0.23-0.35-0.547-0.443-0.951c-0.096-0.403-0.141-0.922-0.141-1.557v-5.86h4.973v-1.492
	h-4.973v-4.347h-1.537v4.347h-2.551v1.492h2.551v6.466c0,0.764,0.109,1.405,0.326,1.925c0.215,0.519,0.525,0.937,0.93,1.254
	c0.402,0.317,0.867,0.544,1.395,0.682c0.525,0.137,1.105,0.205,1.74,0.205h2.271v-1.492h-2.422
	C319.295,490.216,318.862,490.162,318.516,490.054z M337.784,489.589c-0.316,0-0.59,0.115-0.82,0.346s-0.346,0.505-0.346,0.822
	c0,0.316,0.115,0.591,0.346,0.821s0.504,0.346,0.82,0.346c0.318,0,0.592-0.115,0.822-0.346s0.346-0.505,0.346-0.821
	c0-0.317-0.115-0.592-0.346-0.822S338.102,489.589,337.784,489.589z M333.178,486.106c-0.346-0.303-0.785-0.565-1.318-0.789
	c-0.533-0.223-1.182-0.422-1.947-0.595l-0.799-0.173c-1.053-0.216-1.781-0.461-2.184-0.735c-0.404-0.273-0.607-0.678-0.607-1.211
	c0-0.504,0.238-0.904,0.715-1.2c0.475-0.295,1.174-0.443,2.098-0.443c0.793,0,1.477,0.076,2.055,0.228
	c0.576,0.151,1.217,0.421,1.924,0.811l0.691-1.405c-1.412-0.765-2.969-1.146-4.67-1.146c-0.635,0-1.223,0.076-1.764,0.228
	c-0.539,0.151-1.008,0.364-1.404,0.638s-0.711,0.605-0.941,0.994c-0.23,0.39-0.346,0.815-0.346,1.276
	c0,0.462,0.072,0.88,0.217,1.254c0.143,0.375,0.381,0.707,0.713,0.995s0.758,0.537,1.275,0.746c0.52,0.209,1.146,0.4,1.883,0.573
	l0.908,0.194c1.008,0.217,1.729,0.49,2.162,0.822c0.432,0.331,0.648,0.771,0.648,1.318c0,0.39-0.086,0.707-0.26,0.952
	c-0.172,0.245-0.414,0.436-0.725,0.573c-0.311,0.137-0.678,0.237-1.102,0.303c-0.426,0.064-0.877,0.097-1.352,0.097
	c-0.592,0-1.223-0.09-1.893-0.271c-0.67-0.18-1.352-0.479-2.045-0.897l-0.734,1.471c0.779,0.433,1.539,0.742,2.281,0.93
	s1.539,0.281,2.391,0.281c0.748,0,1.434-0.072,2.053-0.216c0.621-0.145,1.158-0.36,1.611-0.648c0.455-0.289,0.805-0.649,1.049-1.082
	c0.246-0.433,0.369-0.93,0.369-1.492c0-0.476-0.072-0.915-0.217-1.318C333.77,486.763,333.526,486.41,333.178,486.106z"/>
</svg>

